<?xml version="1.0" encoding="UTF-8"?><svg id="Layer_1" xmlns="http://www.w3.org/2000/svg" viewBox="0 0 462.18 435.29"><defs><style>.cls-1{fill:none;stroke:#12262c;}.cls-1,.cls-2{stroke-miterlimit:10;stroke-width:3px;}.cls-2{opacity:.08;stroke:#231f20;}.cls-2,.cls-3,.cls-4{fill:#fff;}.cls-5{fill:#eb4c24;}.cls-6{fill:#f68b1f;}.cls-7{fill:#214c5b;}.cls-8{fill:#1c3c43;}.cls-9{fill:#479f55;}.cls-10{fill:#4b9a5c;}.cls-11{fill:#4a9750;}.cls-12{opacity:.84;}.cls-13{fill:#cd3627;opacity:.81;}.cls-4{opacity:.73;}</style></defs><path class="cls-7" d="m.59,44.84v390.46h435.14l-2.73-390.46S222.72-55.39.59,44.84Z"/><g><path class="cls-11" d="m310.55,163.03c7.02-7.25,17.71-9.6,27.79-10.04,10.09-.44,20.3.67,30.22-1.2,10.93-2.06,20.84-7.59,30.52-13.05,9.48-5.34,19.12-10.8,26.56-18.73,3.82-4.07,6.98-8.72,9.9-13.48,19.44-31.67,28.75-69.46,26.24-106.54-4.01,10.75-12.95,19.55-23.76,23.39-10.39,3.69-23.01,3.45-30.48,11.57-1.57,1.71-2.82,3.73-4.57,5.26-2.05,1.81-4.66,2.84-7.22,3.8-17.28,6.46-36.68,12.13-46.84,27.54-2.86,4.34-4.97,9.44-9.23,12.41-3.34,2.33-7.57,3.02-11.1,5.06-6.84,3.95-9.88,12.12-11.79,19.78-4.4,17.6-8.81,35.96-6.71,53.98"/><path class="cls-7" d="m446.5,29.46c-9.73,18.19-24.19,33.16-39.48,46.79-7.85,7-15.93,13.72-24,20.46-8.94,7.47-18.02,14.77-27.48,21.57-10.41,7.48-21.2,14.43-32.3,20.83-1.67.96-.16,3.56,1.51,2.59,20.07-11.57,38.84-25.03,56.68-39.78,16.36-13.53,33.07-27.02,47.37-42.77,7.8-8.59,14.81-17.93,20.29-28.17.91-1.7-1.68-3.22-2.59-1.51h0Z"/><path class="cls-7" d="m339.74,133.64c4.14-.52,8.29-1.04,12.47-1.06s8.37.53,12.55.92c7.85.73,15.71.29,23.38-1.61,4.31-1.07,8.5-2.59,12.52-4.47,1.75-.82.23-3.4-1.51-2.59-6.88,3.21-14.35,5.21-21.92,5.83-3.92.32-7.84.25-11.75-.09s-8.03-.91-12.07-.97c-4.58-.08-9.14.49-13.67,1.06-1.89.24-1.91,3.24,0,3h0Z"/><path class="cls-7" d="m376.04,106.64c3.97,1.84,8.2,1.63,12.42.92,4.69-.8,9.34-1.9,13.95-3.05,9.31-2.32,18.48-5.17,27.48-8.51,1.79-.67,1.02-3.57-.8-2.89-8.55,3.18-17.26,5.91-26.09,8.16-4.38,1.12-8.79,2.12-13.22,3-3.97.79-8.4,1.55-12.22-.22-1.74-.81-3.27,1.78-1.51,2.59h0Z"/><path class="cls-7" d="m413.35,74.59c7.27-4.24,14.85-7.66,22.69-10.69,5.62-2.18,12.14-5.03,13.95-11.36.53-1.86-2.36-2.65-2.89-.8-1.64,5.73-8.49,7.99-13.47,9.88-7.53,2.87-14.82,6.32-21.79,10.38-1.67.97-.16,3.57,1.51,2.59h0Z"/><path class="cls-7" d="m413.51,73.8c.85-5.63,1.71-11.26,2.56-16.88.4-2.66.77-5.33,1.22-7.98.34-2.02.81-4.06,2.47-5.41,1.5-1.21-.63-3.32-2.12-2.12-1.69,1.37-2.54,3.42-3.01,5.49-.6,2.71-.89,5.5-1.31,8.24-.9,5.95-1.81,11.91-2.71,17.86-.29,1.89,2.6,2.7,2.89.8h0Z"/><path class="cls-7" d="m376.07,103.97c.51-16.48,5.51-32.32,10.44-47.92.58-1.84-2.31-2.63-2.89-.8-5.02,15.86-10.03,31.96-10.55,48.72-.06,1.93,2.94,1.93,3,0h0Z"/><path class="cls-7" d="m340.06,130.13c5.11-6.73,6.99-15.09,9.13-23.09,1.03-3.83,2.12-7.68,3.8-11.28.86-1.85,1.87-3.62,3.05-5.28s2.41-3.21,3.11-5.16c.65-1.82-2.24-2.6-2.89-.8-.69,1.91-2.15,3.45-3.27,5.12-1.06,1.58-1.97,3.25-2.75,4.98-1.64,3.61-2.79,7.4-3.83,11.22-2.13,7.9-3.89,16.12-8.94,22.78-1.17,1.54,1.44,3.03,2.59,1.51h0Z"/></g><path class="cls-4" d="m129.66,176.08c-4.41,8.67-8.4,17.88-8.69,27.61s3.86,20.12,12.38,24.82c4.54,2.5,13.97,9.28,18.75,11.28,8.04,3.36,30.22,13.53,37,19,16.09,12.99,22.36,13.21,40,24,10.6,6.49,15.51,11.29,27.88,10.03,12.12-12.03,18.56-24.73,25.29-38.59,4.93-10.16,8.56-20.93,13.87-30.9,8.34-15.63,21.07-30.06,22.06-47.74.11-2.05.02-4.24-1.16-5.92-.87-1.23-2.21-2.03-3.51-2.79-33.88-19.72-67.77-39.45-101.65-59.17-7.14-4.16-19.45-12.1-28.25-9.28-7.21,2.31-13.63,15.43-18.09,21.49-13.18,17.9-25.78,36.33-35.87,56.18Z"/><path class="cls-2" d="m99.59,372.29l-6-258s165.5-14.5,247.5,5.5l-11.55,252.5s-82.45,45.5-229.95,0Z"/><path class="cls-13" d="m101.09,172.79l3,162s111.96,18,219.48,0l9.29-156.36s-83.77-15.64-231.77-5.64Z"/><g class="cls-12"><path class="cls-6" d="m344.59,98.29c-22.19-.43-46.83,12.91-55.99,33.12-2.53,5.59-4.15,11.53-5.75,17.45-6.91,25.5-9.75,68.93-16.04,77.5-3.43,1.9-7.18-1.79-9.37-5.04-2.15-3.19-4.31-6.39-6.29-9.7-14.91-24.91-19.15-55.99-11.46-83.98,1.17-4.26,7-12.15,9.4-15.86,5.33-8.23,18.19-16.7,27-21,11.78-5.75,10.79-5.32,23.5-8.5,4-1,9.7-1,14-1,11.45.01,22.67,5.17,30.76,12.69,1.67,1.55.51,4.45-1.76,4.31-.04,0,2.01,0,2,0"/></g><path class="cls-5" d="m261.19,215.21c1.93,0,1.93-3,0-3s-1.93,3,0,3h0Z"/><path class="cls-5" d="m263.85,210.56c1.93,0,1.93-3,0-3s-1.93,3,0,3h0Z"/><path class="cls-5" d="m264.51,217.86c1.93,0,1.93-3,0-3s-1.93,3,0,3h0Z"/><path class="cls-5" d="m266.5,213.88c1.93,0,1.93-3,0-3s-1.93,3,0,3h0Z"/><path class="cls-5" d="m267.83,206.58c1.93,0,1.93-3,0-3s-1.93,3,0,3h0Z"/><path class="cls-5" d="m257.21,211.23c1.93,0,1.93-3,0-3s-1.93,3,0,3h0Z"/><path class="cls-5" d="m260.2,207.25c1.93,0,1.93-3,0-3s-1.93,3,0,3h0Z"/><path class="cls-5" d="m255.55,206.58c1.93,0,1.93-3,0-3s-1.93,3,0,3h0Z"/><path class="cls-5" d="m263.18,205.26c1.93,0,1.93-3,0-3s-1.93,3,0,3h0Z"/><path class="cls-5" d="m259.2,202.27c1.93,0,1.93-3,0-3s-1.93,3,0,3h0Z"/><path class="cls-5" d="m267.5,200.61c1.93,0,1.93-3,0-3s-1.93,3,0,3h0Z"/><path class="cls-5" d="m262.52,199.61c1.93,0,1.93-3,0-3s-1.93,3,0,3h0Z"/><path class="cls-5" d="m266.83,194.97c1.93,0,1.93-3,0-3s-1.93,3,0,3h0Z"/><path class="cls-8" d="m309.48,269.4c1.16,25.68.76,51.42-1.23,77.04-.56,7.23-1.25,14.44-2.06,21.65-.22,1.92,2.79,1.9,3,0,2.87-25.54,4.18-51.25,3.9-76.95-.08-7.25-.29-14.5-.61-21.74-.09-1.92-3.09-1.93-3,0h0Z"/><path class="cls-8" d="m307.04,368.09c-22.31,6.89-45.77,9.77-69.09,8.49-6.58-.36-13.14-1.06-19.65-2.09-1.89-.3-2.7,2.59-.8,2.89,23.47,3.71,47.5,3.24,70.8-1.43,6.6-1.32,13.12-2.99,19.54-4.97,1.84-.57,1.05-3.46-.8-2.89h0Z"/><path class="cls-8" d="m297.2,322.07c-.93,8.79-1.01,17.55-.68,26.37.28,7.57.48,15.62-3.41,22.41-.96,1.68,1.63,3.19,2.59,1.51,4.02-7.01,4.13-15.22,3.85-23.07-.32-9.11-.31-18.14.65-27.22.2-1.92-2.8-1.9-3,0h0Z"/><path class="cls-8" d="m286.97,327.9c-.52,8.95-1.3,17.89-2.36,26.79-.45,3.72-.78,7.52-1.73,11.16-.79,3.01-2.11,5.99-4.83,7.7-1.63,1.03-.12,3.62,1.51,2.59,6.46-4.08,6.95-12.66,7.8-19.49,1.19-9.55,2.05-19.14,2.6-28.75.11-1.93-2.89-1.92-3,0h0Z"/><path class="cls-8" d="m274.02,329.86l-.79,25.36c-.12,4.01-.06,8.07-.45,12.06-.32,3.35-1.49,6.87-4.74,8.4-1.75.82-.23,3.41,1.51,2.59,3.28-1.54,5.17-4.93,5.85-8.36.83-4.13.63-8.5.76-12.69.28-9.12.57-18.23.85-27.35.06-1.93-2.94-1.93-3,0h0Z"/><path class="cls-8" d="m259.72,326.2c.59,9.41.43,18.86-.51,28.25-.76,7.6-1.36,16.78-6.89,22.63-1.33,1.4.79,3.53,2.12,2.12,5.84-6.18,6.74-15.22,7.62-23.28,1.07-9.87,1.28-19.81.66-29.72-.12-1.92-3.12-1.93-3,0h0Z"/><path class="cls-8" d="m244.54,328.87c-.24,5.09-.48,10.18-.72,15.27-.21,4.47-.31,8.96-.77,13.42-.82,7.92-3.81,16.51-12.43,18.62-1.87.46-1.08,3.35.8,2.89,15.65-3.83,14.84-23.07,15.43-35.67.23-4.84.46-9.69.69-14.53.09-1.93-2.91-1.93-3,0h0Z"/><path class="cls-8" d="m317.46,156.71c.28,5.81.56,11.63.43,17.45s-.86,11.64-2.01,17.42c-2.25,11.39-2.62,23.07-3.46,34.63-.48,6.68-.97,13.36-1.45,20.04-.14,1.93,2.86,1.92,3,0,.86-11.88,1.72-23.75,2.58-35.63.41-5.72.89-11.4,1.98-17.04s2.04-11.4,2.28-17.24c.27-6.54-.05-13.09-.37-19.63-.09-1.92-3.09-1.93-3,0h0Z"/><path class="cls-8" d="m298.67,275.19c-.27,10.54-1.17,21.06-2.74,31.48-.28,1.89,2.61,2.7,2.89.8,1.61-10.69,2.57-21.47,2.85-32.28.05-1.93-2.95-1.93-3,0h0Z"/><path class="cls-8" d="m286.61,276.07c-.35,7.08-.7,14.16-1.05,21.24s-1.2,14.02-.4,20.91c.22,1.9,3.22,1.92,3,0-.8-6.89.06-14.01.4-20.91s.7-14.16,1.05-21.24c.1-1.93-2.91-1.92-3,0h0Z"/><path class="cls-8" d="m274,282.82c-.13,11.94-.26,23.89-.39,35.83-.02,1.93,2.98,1.93,3,0,.13-11.94.26-23.89.39-35.83.02-1.93-2.98-1.93-3,0h0Z"/><path class="cls-8" d="m305.89,177.28c1.79,16.45-2.74,32.6-4.25,48.87-.43,4.61-.6,9.25-.35,13.87.11,1.92,3.11,1.93,3,0-.9-16.5,3.8-32.55,4.84-48.92.29-4.61.27-9.23-.23-13.83-.21-1.9-3.21-1.92-3,0h0Z"/><path class="cls-8" d="m294.82,188.35c1.43,7.6-.32,15.32-1.31,22.86s-1.05,15.65-1.05,23.49c0,1.93,3,1.93,3,0,0-8.03.03-16.08,1.13-24.04s2.58-15.37,1.12-23.11c-.36-1.9-3.25-1.09-2.89.8h0Z"/><path class="cls-8" d="m280.56,202.19c.02,6.46.62,12.9,1.77,19.26.34,1.9,3.23,1.09,2.89-.8-1.1-6.09-1.64-12.27-1.66-18.46,0-1.93-3.01-1.93-3,0h0Z"/><path class="cls-1" d="m99.18,371.82l-6-258s165.5-14.5,247.5,5.5l-11.55,252.5s-82.45,45.5-229.95,0Z"/><path class="cls-3" d="m105.59,128.1c-.7,17.21-.88,34.44-.52,51.65.1,4.91.25,9.81.44,14.72.07,1.92,3.07,1.93,3,0-.66-17.21-.79-34.44-.39-51.66.11-4.91.27-9.81.47-14.72.08-1.93-2.92-1.93-3,0h0Z"/><path class="cls-3" d="m116.16,140.06c.65,15.25.95,30.51.92,45.78,0,1.93,3,1.93,3,0,.04-15.26-.27-30.53-.92-45.78-.08-1.92-3.08-1.93-3,0h0Z"/><path class="cls-3" d="m124.2,155.07c1.41,9.74,1.86,19.61,1.4,29.43-.09,1.93,2.91,1.93,3,0,.47-10.11-.06-20.22-1.51-30.23-.28-1.9-3.17-1.09-2.89.8h0Z"/><path class="cls-3" d="m182.94,112.89c-9.46,9.53-17.15,20.75-22.6,33.03-.78,1.75,1.81,3.28,2.59,1.51,5.35-12.06,12.84-23.06,22.13-32.42,1.36-1.37-.76-3.49-2.12-2.12h0Z"/><path class="cls-3" d="m191.19,118.06c-7.91,8.9-14.71,18.75-20.19,29.32-.89,1.71,1.7,3.23,2.59,1.51,5.36-10.35,11.97-20,19.72-28.71,1.28-1.44-.83-3.57-2.12-2.12h0Z"/><path class="cls-3" d="m110.14,281.39c.29,20.86.4,41.73.31,62.59-.03,5.9-.07,11.8-.12,17.71-.02,1.93,2.98,1.93,3,0,.2-20.86.2-41.73.02-62.59-.05-5.9-.12-11.8-.2-17.71-.03-1.93-3.03-1.93-3,0h0Z"/><path class="cls-3" d="m119.68,307.28c0,16.81,0,33.62,0,50.43,0,1.93,3,1.93,3,0,0-16.81,0-33.62,0-50.43,0-1.93-3-1.93-3,0h0Z"/><g><path class="cls-10" d="m50.45,309.05c-14.9-6.71-31.26-7.25-47.13-4.18-2.32.45-3.85,3.35-3.14,5.54.8,2.47,3.05,3.62,5.54,3.14,1.75-.34,3.51-.64,5.28-.88-.86.12.4-.05.57-.07.44-.05.89-.1,1.33-.15.89-.09,1.78-.17,2.67-.24,3.63-.26,7.27-.3,10.9-.06.89.06,1.77.13,2.65.22.44.05.88.1,1.32.15.33.04.29.04-.1-.02.22.03.44.06.66.1,1.75.26,3.5.6,5.22,1.01s3.44.89,5.13,1.45c.85.28,1.69.58,2.52.9.42.16.84.33,1.25.5.29.12.28.11-.04-.02.28.12.55.24.82.37,2.14.96,4.94.69,6.16-1.61,1.04-1.97.68-5.13-1.61-6.16h0Z"/><g><path class="cls-9" d="m53.08,309.27c12.26-6.57,26.9-10.14,40.19-6.02,17.12,5.3,30.44,17.63,43.82,29.55,9.82,8.74,20.88,15.6,32.44,21.72,5.8,3.07,11.39,7.95,17.56,10.28,48.89,18.47,35,10,49.09,24.96,1.73,1.83,1.32,4.63-1.16,5.03-5.93.96-11.98,1.12-17.95.47-5.01-.54-9.96-1.65-14.99-1.98-10.23-.67-20.37,1.86-30.34,4.28-8.57,2.07-17.26,4.08-26.07,3.86-12.62-.32-24.63-5.17-36.96-7.87-9.65-2.11-19.85-3.01-28.39-7.96-14.4-8.34-20.39-25.73-25.25-41.64-1.87-6.12-3.74-12.24-5.61-18.36-1.68-5.48-2.54-13.01,2.64-15.48"/><path class="cls-9" d="m53.84,310.56c7.68-4.09,16.17-7.02,24.91-7.5,8.71-.48,16.88,1.98,24.57,5.93s14.32,8.96,20.77,14.39,12.95,11.73,19.92,16.99c7.23,5.47,15,10.18,22.97,14.48,3.86,2.08,7.47,4.47,11.15,6.84s7.57,4.18,11.73,5.74c10.44,3.91,21.05,7.4,31.46,11.37.58.22,1.15.44,1.72.68-.21-.09.18.08.4.18s.46.21.69.32c.73.35,1.43.75,2.1,1.2.15.11.51.39.15.1.15.12.29.23.43.36.27.23.53.48.79.74.59.59,1.14,1.22,1.68,1.85,1.83,2.13,3.67,4.24,5.57,6.3.62.67,1.5,2.11.27,2.69-.84.4-2.1.36-3,.47-1.29.15-2.58.26-3.88.34-4.99.29-9.96-.02-14.89-.76s-9.54-1.57-14.39-1.6-9.69.59-14.45,1.48c-9.55,1.78-18.86,4.76-28.49,6.12-4.73.67-9.51.86-14.26.41-4.68-.44-9.29-1.46-13.84-2.63s-8.94-2.47-13.43-3.64-8.79-2.01-13.23-2.84c-8.26-1.56-16.66-3.35-23.53-8.47-5.86-4.37-10.05-10.58-13.26-17.06s-5.66-13.96-7.87-21.15c-1.43-4.67-2.85-9.34-4.28-14.01-1.12-3.67-2.51-7.38-2.66-11.25-.11-2.84.42-5.85,3.17-7.24,1.72-.87.21-3.46-1.51-2.59-6.83,3.45-4.66,12.81-2.9,18.59,2.7,8.85,5.23,17.78,8.27,26.52,2.55,7.32,5.59,14.62,10.1,20.98s10.54,11.5,17.91,14.47c8.47,3.41,17.71,4.17,26.53,6.32,9.33,2.28,18.46,5.45,28.02,6.71,10.02,1.32,19.86-.31,29.61-2.61,9.82-2.31,19.69-5.13,29.86-5.12,5.16,0,10.19.99,15.28,1.7s10.12.97,15.21.59c1.21-.09,2.43-.21,3.63-.37,1.1-.14,2.3-.19,3.35-.6,1.49-.58,2.47-1.98,2.53-3.59.1-2.64-2.15-4.4-3.76-6.19-2.62-2.93-4.96-6.48-8.48-8.4-2.2-1.2-4.63-2.02-6.98-2.87-4.75-1.71-9.53-3.35-14.29-5.06-3.79-1.36-7.57-2.75-11.35-4.15-4.42-1.64-8.74-3.21-12.76-5.71-3.82-2.37-7.45-5.01-11.42-7.13-4.17-2.22-8.28-4.55-12.3-7.03-8.04-4.97-15.35-10.68-22.4-16.96-6.54-5.83-13.15-11.63-20.37-16.61s-15.13-9.27-23.63-11.23c-8.79-2.03-18.03-1.03-26.55,1.72-4.18,1.35-8.22,3.12-12.1,5.18-1.71.91-.19,3.5,1.51,2.59h0Z"/></g><path class="cls-7" d="m60.42,318.77c10.09,3.38,19.87,7.59,29.25,12.61,9.36,5.01,18.18,10.91,26.83,17.05,17.14,12.16,34.07,25.13,54.09,32.23,10.83,3.84,22.42,5.82,33.9,4.59,1.9-.2,1.92-3.21,0-3-20.76,2.23-40.79-6.12-58.11-16.84-18.01-11.16-34.22-25.01-52.78-35.3-10.33-5.72-21.19-10.48-32.38-14.23-1.83-.61-2.62,2.28-.8,2.89h0Z"/><path class="cls-7" d="m163.37,377.22c7.26-1.65,14.67-2.42,22.11-2.32,1.93.03,1.93-2.97,0-3-7.7-.11-15.4.72-22.91,2.43-1.88.43-1.09,3.32.8,2.89h0Z"/><path class="cls-7" d="m162.27,377.39c1.51,1.41,2.15,3.47,3.4,5.09,1.36,1.77,3.24,2.99,5.17,4.06,4.29,2.39,8.77,4.44,13.35,6.2,1.8.69,2.58-2.21.8-2.89-4.34-1.67-8.57-3.64-12.64-5.9-1.72-.96-3.48-2.01-4.6-3.68s-1.85-3.59-3.36-5c-1.41-1.32-3.54.8-2.12,2.12h0Z"/><path class="cls-7" d="m125.47,353.87c3.99,12.94,11.23,24.75,20.97,34.16,1.39,1.34,3.51-.78,2.12-2.12-9.37-9.06-16.36-20.39-20.2-32.84-.57-1.84-3.46-1.05-2.89.8h0Z"/><path class="cls-7" d="m126.59,354.79c4.28.56,8.57,1.09,12.85,1.71s8.12,1.39,11.95,2.94c1.79.72,2.57-2.18.8-2.89-3.97-1.61-8.18-2.4-12.41-3.01s-8.79-1.17-13.19-1.75c-.81-.11-1.49.77-1.5,1.5,0,.9.7,1.39,1.5,1.5h0Z"/><path class="cls-7" d="m87.19,330.74c6.94,2.02,14.37,1.25,21.48,2.05,7.3.83,14.49,2.66,21.33,5.32,1.8.7,2.58-2.2.8-2.89-6.82-2.66-13.93-4.41-21.19-5.32-3.56-.44-7.12-.6-10.71-.71s-7.36-.31-10.92-1.35c-1.86-.54-2.65,2.35-.8,2.89h0Z"/><path class="cls-7" d="m86.15,329.69c1.4,7.68,3.45,15.32,7.22,22.21,1.97,3.6,4.41,6.94,6.72,10.33,2.48,3.64,4.97,7.28,7.45,10.91,2.76,4.05,5.53,8.1,8.29,12.15,1.08,1.59,3.68.09,2.59-1.51-4.83-7.07-9.65-14.14-14.48-21.21-2.3-3.37-4.71-6.7-6.83-10.19s-3.62-6.87-4.86-10.55c-1.42-4.22-2.41-8.56-3.21-12.93-.35-1.9-3.24-1.09-2.89.8h0Z"/><path class="cls-7" d="m65.3,328.13c5.19,3.96,5.64,11.82,7.38,17.61,2.21,7.36,5.61,14.35,10.04,20.63,1.1,1.57,3.71.07,2.59-1.51-4.62-6.56-8.11-13.85-10.22-21.6-1.73-6.37-2.68-13.44-8.27-17.71-1.53-1.17-3.03,1.43-1.51,2.59h0Z"/></g><path class="cls-7" d="m69.35,321.59c9.23-4.21,19.45-9.13,29.89-7.47,1.89.3,2.7-2.59.8-2.89-11.37-1.8-22.11,3.17-32.2,7.77-1.75.8-.23,3.39,1.51,2.59h0Z"/></svg>