<svg width="362" height="351" viewBox="0 0 362 351" fill="none" xmlns="http://www.w3.org/2000/svg">
<g clip-path="url(#clip0_40_613)">
<path d="M5.95251 33.3148C2.34395 34.874 0 38.4708 0 42.4018V341C0 346.523 4.47715 351 10 351H340.93C346.48 351 350.968 346.48 350.93 340.93L348.842 42.2056C348.815 38.3757 346.703 34.9537 343.174 33.4658C312.79 20.6566 163.779 -34.8787 5.95251 33.3148Z" fill="#FDFFFC"/>
<path d="M12.4434 44.9643V340.654H341.969L339.901 44.9643C339.901 44.9643 180.659 -30.9385 12.4434 44.9643Z" fill="#214C5B"/>
<path d="M247.172 134.468C252.488 128.978 260.583 127.198 268.217 126.865C275.858 126.532 283.59 127.372 291.102 125.956C299.379 124.396 306.884 120.208 314.214 116.073C321.393 112.03 328.693 107.895 334.328 101.889C337.221 98.8073 339.614 95.2859 341.825 91.6812C356.546 67.698 363.597 39.0802 361.696 11C358.659 19.1408 351.889 25.8049 343.703 28.7129C335.835 31.5073 326.278 31.3256 320.621 37.4747C319.432 38.7697 318.485 40.2994 317.16 41.458C315.608 42.8287 313.631 43.6087 311.692 44.3357C298.606 49.2278 283.915 53.5216 276.221 65.1914C274.055 68.478 272.457 72.3402 269.231 74.5893C266.702 76.3538 263.499 76.8763 260.825 78.4212C255.646 81.4124 253.344 87.5995 251.897 93.4003C248.565 106.729 245.225 120.632 246.816 134.279" fill="#4A9750"/>
<path d="M350.125 33.3172C342.756 47.0922 331.806 58.4288 320.227 68.7506C314.282 74.0516 308.163 79.1406 302.052 84.2447C295.282 89.9016 288.406 95.4298 281.242 100.579C273.358 106.244 265.187 111.507 256.781 116.354C255.517 117.081 256.66 119.05 257.925 118.315C273.124 109.553 287.338 99.3601 300.848 88.1901C313.237 77.9441 325.891 67.7283 336.721 55.801C342.627 49.2959 347.936 42.2229 352.086 34.4683C352.775 33.1809 350.814 32.0298 350.125 33.3248V33.3172Z" fill="#214C5B"/>
<path d="M269.277 112.211C272.412 111.817 275.555 111.424 278.72 111.409C281.886 111.393 285.059 111.81 288.224 112.105C294.169 112.658 300.121 112.325 305.93 110.886C309.193 110.076 312.366 108.925 315.411 107.501C316.736 106.88 315.585 104.926 314.267 105.54C309.057 107.97 303.4 109.485 297.668 109.955C294.699 110.197 291.73 110.144 288.769 109.886C285.808 109.629 282.688 109.197 279.629 109.152C276.161 109.091 272.707 109.523 269.277 109.955C267.846 110.136 267.83 112.408 269.277 112.226V112.211Z" fill="#214C5B"/>
<path d="M296.766 91.7645C299.773 93.1579 302.976 92.9989 306.172 92.4612C309.723 91.8554 313.245 91.0224 316.736 90.1515C323.786 88.3946 330.731 86.2363 337.546 83.707C338.902 83.1996 338.319 81.0035 336.94 81.5185C330.466 83.9266 323.87 85.994 317.183 87.6979C313.866 88.5461 310.526 89.3034 307.171 89.9698C304.165 90.568 300.81 91.1436 297.917 89.8032C296.6 89.1898 295.441 91.1511 296.774 91.7645H296.766Z" fill="#214C5B"/>
<path d="M325.021 67.4935C330.526 64.2826 336.266 61.6927 342.204 59.3982C346.459 57.7473 351.397 55.589 352.768 50.7954C353.169 49.3868 350.98 48.7886 350.579 50.1896C349.337 54.5288 344.15 56.2403 340.378 57.6715C334.676 59.845 329.155 62.4576 323.877 65.5322C322.613 66.2667 323.756 68.2357 325.021 67.4935Z" fill="#214C5B"/>
<path d="M325.142 66.8953C325.785 62.6318 326.437 58.3682 327.08 54.1123C327.383 52.0979 327.664 50.0759 328.004 48.0691C328.262 46.5394 328.618 44.9946 329.875 43.9722C331.011 43.0559 329.398 41.458 328.269 42.3668C326.99 43.4043 326.346 44.9567 325.99 46.5243C325.536 48.5765 325.316 50.6894 324.998 52.7643C324.316 57.2702 323.627 61.7836 322.946 66.2894C322.726 67.7207 324.915 68.3341 325.134 66.8953H325.142Z" fill="#214C5B"/>
<path d="M296.789 89.7426C297.175 77.2625 300.962 65.2671 304.695 53.4535C305.134 52.06 302.946 51.4618 302.507 52.8476C298.705 64.8582 294.911 77.0505 294.517 89.7426C294.472 91.2042 296.744 91.2042 296.789 89.7426Z" fill="#214C5B"/>
<path d="M269.519 109.553C273.389 104.457 274.812 98.1257 276.433 92.0675C277.213 89.1671 278.038 86.2515 279.31 83.5253C279.962 82.1243 280.727 80.7839 281.62 79.5268C282.514 78.2697 283.445 77.0959 283.975 75.6192C284.468 74.241 282.279 73.6503 281.787 75.0134C281.264 76.4598 280.159 77.626 279.31 78.8907C278.508 80.0872 277.819 81.3519 277.228 82.662C275.986 85.3958 275.115 88.2659 274.328 91.1587C272.715 97.1413 271.382 103.366 267.557 108.41C266.671 109.576 268.648 110.704 269.519 109.553Z" fill="#214C5B"/>
<path opacity="0.73" d="M110.186 144.35C106.846 150.916 103.825 157.891 103.605 165.259C103.385 172.628 106.528 180.496 112.98 184.055C116.418 185.948 123.559 191.083 127.179 192.597C133.268 195.142 150.064 202.843 155.199 206.986C167.384 216.823 172.132 216.989 185.49 225.16C193.518 230.075 197.236 233.71 206.603 232.756C215.782 223.646 220.659 214.028 225.755 203.532C229.489 195.838 232.238 187.682 236.259 180.132C242.575 168.296 252.215 157.368 252.964 143.979C253.048 142.427 252.98 140.768 252.086 139.496C251.427 138.565 250.412 137.959 249.428 137.383C223.771 122.45 198.107 107.508 172.45 92.5748C167.043 89.4245 157.721 83.4117 151.057 85.5472C145.597 87.2965 140.735 97.2321 137.357 101.821C127.376 115.377 117.834 129.333 110.193 144.366L110.186 144.35Z" fill="white"/>
<path opacity="0.08" d="M87.4143 292.938L82.8706 97.5578C82.8706 97.5578 208.201 86.5771 270.299 101.723L261.552 292.938C261.552 292.938 199.114 327.394 87.4143 292.938Z" fill="white" stroke="#231F20" stroke-width="3" stroke-miterlimit="10"/>
<path opacity="0.81" d="M88.5503 141.859L90.8222 264.539C90.8222 264.539 175.608 278.17 257.031 264.539L264.066 146.13C264.066 146.13 200.629 134.286 88.5503 141.859Z" fill="#CD3627"/>
<g opacity="0.84">
<path d="M272.95 85.4412C256.145 85.1156 237.486 95.2178 230.549 110.522C228.633 114.756 227.406 119.254 226.195 123.737C220.962 143.048 218.811 175.937 214.048 182.427C211.45 183.866 208.611 181.071 206.952 178.61C205.324 176.194 203.688 173.771 202.189 171.264C190.898 152.4 187.687 128.864 193.51 107.668C194.396 104.441 198.811 98.4665 200.629 95.657C204.665 89.4245 214.404 83.0103 221.075 79.754C229.996 75.3996 229.247 75.7252 238.872 73.317C241.901 72.5598 246.217 72.5598 249.474 72.5598C258.145 72.5673 266.641 76.4749 272.768 82.1697C274.032 83.3435 273.154 85.5396 271.435 85.4336C271.405 85.4336 272.957 85.4336 272.95 85.4336" fill="#F68B1F"/>
</g>
<path d="M209.792 173.983C211.254 173.983 211.254 171.711 209.792 171.711C208.33 171.711 208.33 173.983 209.792 173.983Z" fill="#EB4C24"/>
<path d="M211.806 170.462C213.268 170.462 213.268 168.19 211.806 168.19C210.345 168.19 210.345 170.462 211.806 170.462Z" fill="#EB4C24"/>
<path d="M212.306 175.99C213.768 175.99 213.768 173.718 212.306 173.718C210.845 173.718 210.845 175.99 212.306 175.99Z" fill="#EB4C24"/>
<path d="M213.813 172.976C215.275 172.976 215.275 170.704 213.813 170.704C212.351 170.704 212.351 172.976 213.813 172.976Z" fill="#EB4C24"/>
<path d="M214.82 167.448C216.282 167.448 216.282 165.176 214.82 165.176C213.359 165.176 213.359 167.448 214.82 167.448Z" fill="#EB4C24"/>
<path d="M206.778 170.969C208.239 170.969 208.239 168.697 206.778 168.697C205.316 168.697 205.316 170.969 206.778 170.969Z" fill="#EB4C24"/>
<path d="M209.042 167.955C210.504 167.955 210.504 165.683 209.042 165.683C207.58 165.683 207.58 167.955 209.042 167.955Z" fill="#EB4C24"/>
<path d="M205.521 167.448C206.983 167.448 206.983 165.176 205.521 165.176C204.059 165.176 204.059 167.448 205.521 167.448Z" fill="#EB4C24"/>
<path d="M211.299 166.448C212.76 166.448 212.76 164.176 211.299 164.176C209.837 164.176 209.837 166.448 211.299 166.448Z" fill="#EB4C24"/>
<path d="M208.285 164.184C209.746 164.184 209.746 161.912 208.285 161.912C206.823 161.912 206.823 164.184 208.285 164.184Z" fill="#EB4C24"/>
<path d="M214.57 162.927C216.032 162.927 216.032 160.655 214.57 160.655C213.109 160.655 213.109 162.927 214.57 162.927Z" fill="#EB4C24"/>
<path d="M210.799 162.169C212.26 162.169 212.26 159.898 210.799 159.898C209.337 159.898 209.337 162.169 210.799 162.169Z" fill="#EB4C24"/>
<path d="M214.063 158.656C215.525 158.656 215.525 156.384 214.063 156.384C212.601 156.384 212.601 158.656 214.063 158.656Z" fill="#EB4C24"/>
<path d="M246.361 215.02C247.239 234.467 246.937 253.96 245.43 273.362C245.005 278.837 244.483 284.297 243.87 289.757C243.703 291.211 245.982 291.196 246.141 289.757C248.315 270.416 249.307 250.946 249.095 231.484C249.034 225.993 248.875 220.503 248.633 215.02C248.565 213.566 246.293 213.559 246.361 215.02Z" fill="#1C3C43"/>
<path d="M237.061 254.907C236.357 261.563 236.297 268.197 236.546 274.876C236.759 280.609 236.91 286.705 233.964 291.847C233.237 293.119 235.199 294.263 235.926 292.991C238.97 287.682 239.053 281.465 238.841 275.52C238.599 268.621 238.606 261.783 239.333 254.907C239.485 253.453 237.213 253.468 237.061 254.907Z" fill="#1C3C43"/>
<path d="M229.315 259.322C228.921 266.099 228.33 272.869 227.527 279.609C227.187 282.426 226.937 285.304 226.217 288.061C225.619 290.34 224.619 292.597 222.56 293.892C221.325 294.672 222.469 296.633 223.703 295.853C228.595 292.763 228.966 286.266 229.61 281.094C230.511 273.862 231.162 266.599 231.579 259.322C231.662 257.86 229.39 257.868 229.307 259.322H229.315Z" fill="#1C3C43"/>
<path d="M219.508 260.806L218.909 280.011C218.818 283.047 218.864 286.122 218.569 289.144C218.326 291.68 217.44 294.346 214.979 295.505C213.654 296.126 214.805 298.087 216.123 297.466C218.606 296.3 220.038 293.733 220.553 291.135C221.181 288.008 221.03 284.698 221.128 281.525C221.34 274.619 221.56 267.72 221.772 260.813C221.817 259.352 219.545 259.352 219.5 260.813L219.508 260.806Z" fill="#1C3C43"/>
<path d="M208.678 258.034C209.125 265.16 209.004 272.317 208.292 279.428C207.717 285.183 207.262 292.135 203.075 296.565C202.067 297.625 203.673 299.238 204.68 298.17C209.103 293.49 209.784 286.644 210.45 280.541C211.261 273.066 211.42 265.539 210.95 258.034C210.859 256.58 208.588 256.573 208.678 258.034Z" fill="#1C3C43"/>
<path d="M197.183 260.056L196.638 271.62C196.479 275.005 196.403 278.405 196.055 281.783C195.434 287.78 193.169 294.286 186.642 295.883C185.225 296.232 185.824 298.42 187.247 298.072C199.099 295.172 198.486 280.601 198.932 271.06C199.106 267.394 199.281 263.721 199.455 260.056C199.523 258.595 197.251 258.595 197.183 260.056Z" fill="#1C3C43"/>
<path d="M252.404 129.682C252.616 134.082 252.828 138.489 252.73 142.896C252.631 147.304 252.079 151.711 251.208 156.088C249.504 164.714 249.224 173.559 248.588 182.313C248.224 187.372 247.853 192.431 247.489 197.489C247.383 198.951 249.655 198.943 249.761 197.489C250.413 188.493 251.064 179.504 251.715 170.507C252.026 166.175 252.389 161.874 253.215 157.603C254.04 153.332 254.759 148.97 254.941 144.547C255.146 139.595 254.903 134.634 254.661 129.682C254.593 128.228 252.321 128.22 252.389 129.682H252.404Z" fill="#1C3C43"/>
<path d="M238.175 219.405C237.97 227.387 237.289 235.354 236.1 243.244C235.888 244.676 238.076 245.289 238.288 243.85C239.508 235.755 240.235 227.591 240.447 219.405C240.485 217.944 238.213 217.944 238.175 219.405Z" fill="#1C3C43"/>
<path d="M229.042 220.071C228.777 225.433 228.512 230.795 228.247 236.156C227.982 241.518 227.338 246.773 227.944 251.991C228.111 253.43 230.383 253.445 230.216 251.991C229.61 246.773 230.262 241.382 230.519 236.156C230.776 230.931 231.049 225.433 231.314 220.071C231.39 218.61 229.11 218.617 229.042 220.071Z" fill="#1C3C43"/>
<path d="M219.493 225.183C219.394 234.225 219.296 243.275 219.197 252.317C219.182 253.778 221.454 253.778 221.469 252.317C221.568 243.275 221.666 234.225 221.765 225.183C221.78 223.722 219.508 223.722 219.493 225.183Z" fill="#1C3C43"/>
<path d="M243.642 145.259C244.998 157.717 241.567 169.947 240.424 182.268C240.098 185.759 239.969 189.273 240.159 192.771C240.242 194.225 242.514 194.233 242.431 192.771C241.749 180.276 245.308 168.122 246.096 155.725C246.316 152.234 246.3 148.735 245.922 145.252C245.763 143.813 243.491 143.798 243.65 145.252L243.642 145.259Z" fill="#1C3C43"/>
<path d="M235.259 153.642C236.342 159.398 235.017 165.244 234.267 170.954C233.518 176.664 233.472 182.805 233.472 188.743C233.472 190.204 235.744 190.204 235.744 188.743C235.744 182.662 235.767 176.565 236.6 170.537C237.433 164.509 238.554 158.898 237.448 153.036C237.175 151.598 234.987 152.211 235.259 153.642Z" fill="#1C3C43"/>
<path d="M224.46 164.123C224.476 169.015 224.93 173.892 225.801 178.709C226.058 180.147 228.247 179.534 227.989 178.103C227.156 173.491 226.747 168.811 226.732 164.123C226.732 162.662 224.453 162.662 224.46 164.123Z" fill="#1C3C43"/>
<path d="M87.1038 292.582L82.5601 97.2019C82.5601 97.2019 207.891 86.2212 269.988 101.367L261.242 292.582C261.242 292.582 198.803 327.038 87.1038 292.582Z" stroke="#12262C" stroke-width="3" stroke-miterlimit="10"/>
<path d="M91.9579 108.016C91.4278 121.049 91.2915 134.097 91.5641 147.13C91.6399 150.848 91.7534 154.559 91.8973 158.277C91.9503 159.731 94.2222 159.739 94.1692 158.277C93.6694 145.244 93.5709 132.196 93.8738 119.156C93.9572 115.437 94.0783 111.727 94.2298 108.008C94.2904 106.547 92.0185 106.547 91.9579 108.008V108.016Z" fill="white"/>
<path d="M99.9626 117.073C100.455 128.622 100.682 140.178 100.659 151.742C100.659 153.203 102.931 153.203 102.931 151.742C102.961 140.185 102.727 128.622 102.234 117.073C102.174 115.619 99.902 115.611 99.9626 117.073Z" fill="white"/>
<path d="M106.051 128.44C107.119 135.816 107.46 143.29 107.111 150.727C107.043 152.188 109.315 152.188 109.383 150.727C109.739 143.071 109.338 135.414 108.24 127.834C108.028 126.395 105.839 127.009 106.051 128.44Z" fill="white"/>
<path d="M150.534 96.4976C143.37 103.715 137.547 112.211 133.42 121.511C132.829 122.836 134.79 123.995 135.381 122.654C139.433 113.521 145.105 105.191 152.14 98.103C153.17 97.0655 151.564 95.4601 150.534 96.4976Z" fill="white"/>
<path d="M156.782 100.413C150.791 107.153 145.642 114.612 141.492 122.616C140.818 123.911 142.779 125.062 143.453 123.76C147.512 115.922 152.518 108.614 158.387 102.018C159.356 100.928 157.758 99.3147 156.782 100.413Z" fill="white"/>
<path d="M95.4038 224.1C95.6234 239.897 95.7067 255.702 95.6386 271.499C95.6158 275.967 95.5856 280.435 95.5477 284.91C95.5325 286.372 97.8044 286.372 97.8196 284.91C97.971 269.113 97.971 253.309 97.8347 237.512C97.7968 233.044 97.7438 228.576 97.6832 224.1C97.6605 222.639 95.3887 222.639 95.4114 224.1H95.4038Z" fill="white"/>
<path d="M102.628 243.706C102.628 256.436 102.628 269.166 102.628 281.896C102.628 283.358 104.9 283.358 104.9 281.896C104.9 269.166 104.9 256.436 104.9 243.706C104.9 242.245 102.628 242.245 102.628 243.706Z" fill="white"/>
<path d="M50.2013 245.047C38.9178 239.965 26.5286 239.556 14.5104 241.881C12.7535 242.222 11.5949 244.418 12.1326 246.077C12.7384 247.947 14.4423 248.818 16.3279 248.455C17.6532 248.197 18.986 247.97 20.3264 247.788C19.6751 247.879 20.6293 247.75 20.7581 247.735C21.0913 247.697 21.432 247.659 21.7652 247.622C22.4392 247.553 23.1132 247.493 23.7872 247.44C26.5361 247.243 29.2927 247.213 32.0416 247.394C32.7156 247.44 33.382 247.493 34.0484 247.561C34.3816 247.599 34.7148 247.637 35.048 247.675C35.2979 247.705 35.2676 247.705 34.9723 247.659C35.1389 247.682 35.3055 247.705 35.4721 247.735C36.7974 247.932 38.1226 248.189 39.4251 248.5C40.7277 248.81 42.0302 249.174 43.31 249.598C43.9537 249.81 44.5898 250.037 45.2184 250.28C45.5364 250.401 45.8545 250.53 46.165 250.658C46.3846 250.749 46.377 250.742 46.1347 250.643C46.3467 250.734 46.5512 250.825 46.7557 250.923C48.3763 251.65 50.4967 251.446 51.4206 249.704C52.2081 248.212 51.9355 245.819 50.2013 245.039V245.047Z" fill="#4B9A5C"/>
<path d="M52.1931 245.213C61.4774 240.238 72.5641 237.535 82.6284 240.655C95.5931 244.668 105.68 254.005 115.813 263.032C123.249 269.651 131.625 274.846 140.379 279.481C144.771 281.805 149.004 285.501 153.677 287.265C190.701 301.253 180.182 294.838 190.852 306.167C192.162 307.553 191.852 309.674 189.974 309.976C185.483 310.703 180.901 310.825 176.38 310.332C172.586 309.923 168.838 309.083 165.029 308.833C157.282 308.326 149.603 310.242 142.053 312.074C135.563 313.642 128.982 315.164 122.31 314.997C112.753 314.755 103.658 311.082 94.3209 309.037C87.0131 307.44 79.2888 306.758 72.8215 303.009C61.9166 296.694 57.3805 283.524 53.7001 271.476C52.2839 266.841 50.8678 262.207 49.4517 257.572C48.1795 253.422 47.5282 247.72 51.4509 245.849" fill="#479F55"/>
<path d="M52.7687 246.19C58.5846 243.093 65.014 240.874 71.6327 240.511C78.2513 240.147 84.4156 242.01 90.2392 245.001C96.0627 247.993 101.084 251.787 105.968 255.899C111.027 260.155 115.775 264.782 121.053 268.765C126.331 272.748 132.412 276.474 138.448 279.73C141.371 281.306 144.105 283.116 146.892 284.91C149.679 286.705 152.624 288.076 155.775 289.257C163.681 292.218 171.716 294.861 179.599 297.867C180.038 298.034 180.47 298.201 180.901 298.382C180.742 298.314 181.038 298.443 181.204 298.519C181.371 298.594 181.553 298.678 181.727 298.761C182.28 299.026 182.81 299.329 183.317 299.67C183.431 299.753 183.703 299.965 183.431 299.746C183.544 299.836 183.65 299.92 183.756 300.018C183.961 300.192 184.158 300.382 184.355 300.579C184.801 301.025 185.218 301.502 185.627 301.98C187.013 303.593 188.406 305.19 189.845 306.75C190.315 307.258 190.981 308.348 190.049 308.788C189.413 309.09 188.459 309.06 187.778 309.143C186.801 309.257 185.824 309.34 184.839 309.401C181.06 309.621 177.297 309.386 173.563 308.825C169.83 308.265 166.339 307.636 162.666 307.614C158.993 307.591 155.328 308.061 151.723 308.735C144.491 310.082 137.441 312.339 130.148 313.369C126.566 313.876 122.946 314.02 119.349 313.68C115.752 313.339 112.314 312.574 108.868 311.688C105.423 310.802 102.098 309.817 98.6981 308.931C95.2978 308.045 92.0415 307.409 88.6792 306.781C82.424 305.599 76.0628 304.244 70.8602 300.367C66.4225 297.057 63.2495 292.354 60.8186 287.447C58.3877 282.54 56.5324 276.876 54.8588 271.431C53.7759 267.894 52.7005 264.358 51.6176 260.821C50.7694 258.042 49.7168 255.232 49.6032 252.302C49.5199 250.151 49.9213 247.871 52.0038 246.819C53.3063 246.16 52.1628 244.199 50.8603 244.857C45.688 247.47 47.3314 254.558 48.6642 258.935C50.7088 265.637 52.6248 272.4 54.9269 279.019C56.858 284.562 59.1602 290.09 62.5755 294.906C65.9909 299.723 70.5573 303.615 76.1385 305.864C82.5527 308.447 89.55 309.022 96.2293 310.65C103.295 312.377 110.209 314.778 117.448 315.732C124.688 316.686 132.488 315.497 139.872 313.755C147.255 312.014 154.783 309.87 162.484 309.878C166.392 309.878 170.201 310.628 174.056 311.165C177.91 311.703 181.719 311.9 185.574 311.612C186.49 311.544 187.414 311.453 188.323 311.332C189.156 311.226 190.065 311.188 190.86 310.878C191.988 310.438 192.73 309.378 192.776 308.159C192.851 306.16 191.148 304.827 189.928 303.471C187.944 301.253 186.172 298.564 183.507 297.11C181.84 296.201 180 295.58 178.221 294.937C174.624 293.642 171.004 292.4 167.399 291.105C164.529 290.075 161.666 289.022 158.804 287.962C155.457 286.72 152.185 285.531 149.141 283.638C146.248 281.843 143.499 279.844 140.493 278.239C137.335 276.557 134.222 274.793 131.178 272.915C125.089 269.151 119.554 264.827 114.215 260.071C109.262 255.656 104.257 251.264 98.7889 247.493C93.3213 243.722 87.3312 240.473 80.8943 238.988C74.4573 237.504 67.2404 238.208 60.7883 240.291C57.6229 241.313 54.5634 242.654 51.6252 244.214C50.3302 244.903 51.4813 246.864 52.7687 246.175V246.19Z" fill="#479F55"/>
<path d="M57.7516 252.408C65.3926 254.967 72.7988 258.155 79.9022 261.957C86.9904 265.751 93.6696 270.219 100.22 274.869C113.2 284.077 126.021 293.899 141.182 299.276C149.383 302.184 158.16 303.683 166.854 302.752C168.293 302.601 168.308 300.321 166.854 300.48C151.132 302.169 135.964 295.846 122.848 287.727C109.732 279.609 96.9335 268.788 82.8783 260.995C75.0556 256.664 66.8314 253.059 58.3574 250.219C56.9716 249.757 56.3733 251.946 57.7516 252.408Z" fill="#214C5B"/>
<path d="M135.714 296.671C141.212 295.421 146.824 294.838 152.458 294.914C153.919 294.937 153.919 292.665 152.458 292.642C146.627 292.559 140.796 293.187 135.108 294.482C133.685 294.808 134.283 296.997 135.714 296.671Z" fill="#214C5B"/>
<path d="M134.881 296.8C136.025 297.867 136.509 299.427 137.456 300.654C138.486 301.995 139.909 302.919 141.371 303.729C144.62 305.539 148.012 307.091 151.481 308.424C152.844 308.947 153.435 306.75 152.087 306.235C148.8 304.971 145.597 303.479 142.515 301.767C141.212 301.04 139.879 300.245 139.031 298.981C138.183 297.716 137.63 296.262 136.487 295.194C135.419 294.195 133.806 295.8 134.881 296.8Z" fill="#214C5B"/>
<path d="M107.013 278.988C110.035 288.788 115.517 297.731 122.893 304.857C123.946 305.872 125.551 304.267 124.499 303.252C117.403 296.391 112.11 287.811 109.202 278.382C108.77 276.989 106.581 277.587 107.013 278.988Z" fill="#214C5B"/>
<path d="M107.861 279.685C111.102 280.109 114.351 280.51 117.592 280.98C120.833 281.45 123.741 282.033 126.642 283.206C127.997 283.752 128.588 281.556 127.248 281.018C124.241 279.799 121.053 279.2 117.85 278.738C114.646 278.277 111.193 277.852 107.861 277.413C107.248 277.33 106.733 277.996 106.725 278.549C106.725 279.231 107.255 279.602 107.861 279.685Z" fill="#214C5B"/>
<path d="M78.024 261.472C83.2796 263.002 88.9062 262.419 94.2905 263.025C99.8187 263.653 105.264 265.039 110.443 267.053C111.807 267.584 112.397 265.387 111.049 264.865C105.885 262.851 100.5 261.525 95.0023 260.836C92.3064 260.503 89.6105 260.382 86.8918 260.299C84.1732 260.215 81.3182 260.064 78.6222 259.276C77.2137 258.867 76.6154 261.056 78.0164 261.465L78.024 261.472Z" fill="#214C5B"/>
<path d="M77.2366 260.677C78.2968 266.493 79.8492 272.279 82.7042 277.496C84.196 280.223 86.0438 282.752 87.7931 285.319C89.6712 288.076 91.5569 290.832 93.4349 293.581C95.525 296.648 97.6227 299.715 99.7128 302.782C100.531 303.986 102.5 302.85 101.674 301.639C98.0165 296.285 94.3664 290.931 90.7087 285.577C88.9669 283.025 87.1419 280.503 85.5364 277.86C83.931 275.217 82.7951 272.657 81.856 269.871C80.7807 266.675 80.031 263.388 79.4251 260.079C79.1601 258.64 76.9715 259.253 77.2366 260.685V260.677Z" fill="#214C5B"/>
<path d="M61.4468 259.496C65.3771 262.495 65.7179 268.447 67.0356 272.832C68.7092 278.405 71.2839 283.699 74.6387 288.454C75.4717 289.643 77.4482 288.507 76.6001 287.311C73.1014 282.343 70.4585 276.822 68.8606 270.954C67.5505 266.13 66.8311 260.776 62.5979 257.542C61.4392 256.656 60.3033 258.625 61.4544 259.503L61.4468 259.496Z" fill="#214C5B"/>
<path d="M64.5141 254.543C71.5039 251.355 79.2433 247.629 87.1494 248.886C88.5807 249.113 89.1941 246.925 87.7552 246.698C79.1449 245.335 71.0116 249.098 63.3706 252.582C62.0454 253.188 63.1965 255.149 64.5141 254.543Z" fill="#214C5B"/>
</g>
<defs>
<clipPath id="clip0_40_613">
<rect width="362" height="351" fill="white"/>
</clipPath>
</defs>
</svg>
